<?xml version="1.0" encoding="UTF-8"?>
<!DOCTYPE svg PUBLIC "-//W3C//DTD SVG 1.1//EN" "http://www.w3.org/Graphics/SVG/1.1/DTD/svg11.dtd">
<svg xmlns="http://www.w3.org/2000/svg" xmlns:xlink="http://www.w3.org/1999/xlink" version="1.1" width="241px" height="286px" viewBox="-0.5 -0.5 241 286" content="&lt;mxfile host=&quot;Electron&quot; modified=&quot;2024-01-24T08:26:57.632Z&quot; agent=&quot;Mozilla/5.0 (Macintosh; Intel Mac OS X 10_15_3) AppleWebKit/537.36 (KHTML, like Gecko) draw.io/12.6.5 Chrome/80.0.3987.86 Electron/8.0.0 Safari/537.36&quot; version=&quot;12.6.5&quot; etag=&quot;Ot8j-s8AJumVYvv-jTiE&quot; type=&quot;device&quot;&gt;&lt;diagram id=&quot;4o8BBng4Z0a0jgD-oInK&quot;&gt;5Z3Pc6JIHMX/Go5r8Vs4auLMXuaUw54ZQaUGbRdxY+av30Yhxu5MTarWft/K2xwSbUDh06/TPF5De9HD9vS1Lfabb6qsGi/0y5MXPXphmMep/t0XvFwKkty/FKzburwUBdeCp/pnNRSOqx3rsjrcrNgp1XT1/rZwqXa7atndlBVtq55vV1up5vZb98W6sgqelkVjl/5Vl91mKE2T+Lrgz6peb4avDqNoOOJtMa49HMphU5Tq+U1RtPCih1ap7vJqe3qomh7eCOay3ZdfLH3ds7badR/ZILxs8E/RHIeDG/arexmP9nlTd9XTvlj27591hXrRfNNtG/0u0C+Lw/7CeFWfKv2p81XdNA+qUe1586gsqmy11OWHrlU/qjdL0mVWfV/pJcM+VG1XnX55HMErHS2rSm2rrn3Rq4wbpAPQQVLxNJ6kw6c8X+toxL55WztDWTGoYv364Vdu+sWA7n2MkVuMO7WrnBPMRAnGrELMoRgTFoymGrEY08/fnkNftD1PCQiGogQzAoKmBrGtOCcgaGoQS3A84/78/YnRLScBlmPAwjGT5cjqV5IIy9GxYZHTI5gji20xe2p0u3bsWyS6ajRCx55FTorgJu3YueA4mnoEc2TwL7GoAwwYDIzshdnQsYERUSHWA4aOvYuICsEIHdsWCELZfIAhYolkL8m6zlhEVAhuyAQ+xVIhGCFDtmL0yGCrRxGuyF6QpUhXTBViDR5FvCJ7GTZicCeyiUBE4E7MHhmNkNCdoBsyoTtBIyRwJ1aql2ARso7+QnMksCiWFMEDYgksiqVCMELHFkUu0AO3Zsc+RS7Qw3KMHZsVOT2CR7qzjAWz9AjmSGBbrF4aey02JrAtVi8NRkhoW1Ls9YeYIFQxVYhGSOBYrG4Z3JBpx32BOTIkK75sa2ZIVkJRhAmNWTFDPqzpSwjiFSvkAyN07FPkpIj1ewnLPSuWHsEcCRyLFfeBmzSBY7HiPjBCBsciGxAkBBmLpUIwQpqMxeybwY8doclYZC/Ipqy2BWz/Use2RUyPaI403kU2JUgJgharqwYjpLnVXjYqSFkGiZl6RHMkMDBW8Icd8pkSGBgr+AMjJEhbLBVir0SkBGmLpUIswinDfSxmd4JtyFOGoMXM/MAIHZsVERWCGzKBT7FUCEbIEK+YV2/ADZnFolhXb8AcCSyKJUVwayawKJYKwQhpMhZZqzdlyVisCzdYjpljsyKnR2y7zlgyFkuPYI4EtiUyzrnRj8onsC2R7LMmMwLbYqkQm1BlDKPCZJ81mRE4FlOF4Ke5ZASOxVQhGiFBqGKpEHySTRCqWCrEIswd+xQRFWJPrXOCUMVSIRghoTsBDzLOCd0JGiGhOwGPn8sJ3QkaIaE7AY+aywndCRohS55iSRF8fk1oUcAIA9+xR5HTIvYsO/BpwhTZvD7wGfyK7JxJgc9gWGSnqwl8BsciO2tS4DNYFtkJawKfwbMIT97sM5gW4YmbfYZMRXjSZp/BsQhP2Ox6RnsRHYLPsV3PZi+iQzRDQp8CDgUC17PYi+gQzZDQp4BjgYBh9npLh2iGhD4FHAwErqeul9AhnCGhT0GnAgzz1ls6BDMMCX0KOgsICX0KnCGBT7EeMAI+x2aYu956wgiaIYFPsR7ugGZI4FNeSUgxJPAp1j31aIYEPsW6qR7NkMCnWDcwoxnS3lEPBul6Hnu5YWBokLTDwNAgHdsWHEjhfoZiZnvhfoZxavsUnA+4nttexEOjGTJ4F/NUB82QwbuYZzlohgzexTzBQTMkyFgsDw1m6HpGexEPjWbIkLEI9ymuZ7KXs89okCxTRFr2GQ2SZbIVyz6jQbI8ytjy0GiQH/Auh02x718uj23zMm+L5Y9K78L8N3xbddyVPdjzu3f6nlZ1RVernS7J/Tv12pE/Ge9UHAfcxf4kyfLrz4fYZvpz4nvgfc/WpE2Pb6X0Mb3lnP59VOOCPw71T1060ysE4f50Xahfrc9/F5k3W3izR28x9eZzL4u8Re7liTf/4i3075k3S8dv0nt5+bJhU7N+Ne/OaBtNve7rZam5V7rK5n2t1MuimQ0LtnVZNudKrPSeFt/PH9VX4l7Vu+5MLJl7yWP/WcdOXY7mIgS9J0/D2/hOtR7ctqEkCSapVc2psyb0Adv1iZpQmk/Gx8K8GL3m7/4hRflkfFjjfyP6ngm7T6vJvVnoZbG3SL154mXz/3GrifPJ9KaeY/3fcxxTc/+Go9+2qq+N12VfteA331RZ9Wv8Cw==&lt;/diagram&gt;&lt;/mxfile&gt;" style="background-color: rgb(255, 255, 255);"><defs/><g><rect x="0" y="44.61" width="20" height="20" fill="#dae8fc" stroke="#6c8ebf" pointer-events="all"/><rect x="20" y="44.61" width="20" height="20" fill="none" stroke="#6c8ebf" pointer-events="all"/><rect x="0" y="64.61" width="20" height="20" fill="#dae8fc" stroke="#6c8ebf" pointer-events="all"/><rect x="20" y="64.61" width="20" height="20" fill="#dae8fc" stroke="#6c8ebf" pointer-events="all"/><rect x="40" y="44.61" width="20" height="20" fill="none" stroke="#6c8ebf" pointer-events="all"/><rect x="60" y="44.61" width="20" height="20" fill="none" stroke="#6c8ebf" pointer-events="all"/><rect x="40" y="64.61" width="20" height="20" fill="none" stroke="#6c8ebf" pointer-events="all"/><rect x="60" y="64.61" width="20" height="20" fill="none" stroke="#6c8ebf" pointer-events="all"/><rect x="0" y="84.61" width="20" height="20" fill="#dae8fc" stroke="#6c8ebf" pointer-events="all"/><rect x="20" y="84.61" width="20" height="20" fill="#dae8fc" stroke="#6c8ebf" pointer-events="all"/><rect x="0" y="104.61" width="20" height="20" fill="#dae8fc" stroke="#6c8ebf" pointer-events="all"/><rect x="20" y="104.61" width="20" height="20" fill="#dae8fc" stroke="#6c8ebf" pointer-events="all"/><rect x="40" y="84.61" width="20" height="20" fill="#dae8fc" stroke="#6c8ebf" pointer-events="all"/><rect x="60" y="84.61" width="20" height="20" fill="none" stroke="#6c8ebf" pointer-events="all"/><rect x="40" y="104.61" width="20" height="20" fill="#dae8fc" stroke="#6c8ebf" pointer-events="all"/><rect x="60" y="104.61" width="20" height="20" fill="#dae8fc" stroke="#6c8ebf" pointer-events="all"/><rect x="80" y="44.61" width="20" height="20" fill="none" stroke="#6c8ebf" pointer-events="all"/><rect x="100" y="44.61" width="20" height="20" fill="none" stroke="#6c8ebf" pointer-events="all"/><rect x="80" y="64.61" width="20" height="20" fill="none" stroke="#6c8ebf" pointer-events="all"/><rect x="100" y="64.61" width="20" height="20" fill="none" stroke="#6c8ebf" pointer-events="all"/><rect x="120" y="44.61" width="20" height="20" fill="none" stroke="#6c8ebf" pointer-events="all"/><rect x="140" y="44.61" width="20" height="20" fill="none" stroke="#6c8ebf" pointer-events="all"/><rect x="120" y="64.61" width="20" height="20" fill="none" stroke="#6c8ebf" pointer-events="all"/><rect x="140" y="64.61" width="20" height="20" fill="none" stroke="#6c8ebf" pointer-events="all"/><rect x="80" y="84.61" width="20" height="20" fill="none" stroke="#6c8ebf" pointer-events="all"/><rect x="100" y="84.61" width="20" height="20" fill="none" stroke="#6c8ebf" pointer-events="all"/><rect x="80" y="104.61" width="20" height="20" fill="none" stroke="#6c8ebf" pointer-events="all"/><rect x="100" y="104.61" width="20" height="20" fill="none" stroke="#6c8ebf" pointer-events="all"/><rect x="120" y="84.61" width="20" height="20" fill="none" stroke="#6c8ebf" pointer-events="all"/><rect x="140" y="84.61" width="20" height="20" fill="none" stroke="#6c8ebf" pointer-events="all"/><rect x="120" y="104.61" width="20" height="20" fill="none" stroke="#6c8ebf" pointer-events="all"/><rect x="140" y="104.61" width="20" height="20" fill="none" stroke="#6c8ebf" pointer-events="all"/><rect x="0" y="124.61" width="20" height="20" fill="none" stroke="#6c8ebf" pointer-events="all"/><rect x="20" y="124.61" width="20" height="20" fill="#dae8fc" stroke="#6c8ebf" pointer-events="all"/><rect x="0" y="144.61" width="20" height="20" fill="none" stroke="#6c8ebf" pointer-events="all"/><rect x="20" y="144.61" width="20" height="20" fill="none" stroke="#6c8ebf" pointer-events="all"/><rect x="40" y="124.61" width="20" height="20" fill="#dae8fc" stroke="#6c8ebf" pointer-events="all"/><rect x="60" y="124.61" width="20" height="20" fill="#dae8fc" stroke="#6c8ebf" pointer-events="all"/><rect x="40" y="144.61" width="20" height="20" fill="#dae8fc" stroke="#6c8ebf" pointer-events="all"/><rect x="60" y="144.61" width="20" height="20" fill="#dae8fc" stroke="#6c8ebf" pointer-events="all"/><rect x="0" y="164.61" width="20" height="20" fill="none" stroke="#6c8ebf" pointer-events="all"/><rect x="20" y="164.61" width="20" height="20" fill="none" stroke="#6c8ebf" pointer-events="all"/><rect x="0" y="184.61" width="20" height="20" fill="none" stroke="#6c8ebf" pointer-events="all"/><rect x="20" y="184.61" width="20" height="20" fill="none" stroke="#6c8ebf" pointer-events="all"/><rect x="40" y="164.61" width="20" height="20" fill="none" stroke="#6c8ebf" pointer-events="all"/><rect x="60" y="164.61" width="20" height="20" fill="#dae8fc" stroke="#6c8ebf" pointer-events="all"/><rect x="40" y="184.61" width="20" height="20" fill="none" stroke="#6c8ebf" pointer-events="all"/><rect x="60" y="184.61" width="20" height="20" fill="none" stroke="#6c8ebf" pointer-events="all"/><rect x="80" y="124.61" width="20" height="20" fill="#dae8fc" stroke="#6c8ebf" pointer-events="all"/><rect x="100" y="124.61" width="20" height="20" fill="none" stroke="#6c8ebf" pointer-events="all"/><rect x="80" y="144.61" width="20" height="20" fill="#dae8fc" stroke="#6c8ebf" pointer-events="all"/><rect x="100" y="144.61" width="20" height="20" fill="#dae8fc" stroke="#6c8ebf" pointer-events="all"/><rect x="120" y="124.61" width="20" height="20" fill="none" stroke="#6c8ebf" pointer-events="all"/><rect x="140" y="124.61" width="20" height="20" fill="none" stroke="#6c8ebf" pointer-events="all"/><rect x="120" y="144.61" width="20" height="20" fill="none" stroke="#6c8ebf" pointer-events="all"/><rect x="140" y="144.61" width="20" height="20" fill="none" stroke="#6c8ebf" pointer-events="all"/><rect x="80" y="164.61" width="20" height="20" fill="#dae8fc" stroke="#6c8ebf" pointer-events="all"/><rect x="100" y="164.61" width="20" height="20" fill="#dae8fc" stroke="#6c8ebf" pointer-events="all"/><rect x="80" y="184.61" width="20" height="20" fill="#dae8fc" stroke="#6c8ebf" pointer-events="all"/><rect x="100" y="184.61" width="20" height="20" fill="#dae8fc" stroke="#6c8ebf" pointer-events="all"/><rect x="120" y="164.61" width="20" height="20" fill="#dae8fc" stroke="#6c8ebf" pointer-events="all"/><rect x="140" y="164.61" width="20" height="20" fill="none" stroke="#6c8ebf" pointer-events="all"/><rect x="120" y="184.61" width="20" height="20" fill="#dae8fc" stroke="#6c8ebf" pointer-events="all"/><rect x="140" y="184.61" width="20" height="20" fill="#dae8fc" stroke="#6c8ebf" pointer-events="all"/><rect x="0" y="204.61" width="20" height="20" fill="none" stroke="#6c8ebf" pointer-events="all"/><rect x="20" y="204.61" width="20" height="20" fill="none" stroke="#6c8ebf" pointer-events="all"/><rect x="0" y="224.61" width="20" height="20" fill="none" stroke="#6c8ebf" pointer-events="all"/><rect x="20" y="224.61" width="20" height="20" fill="none" stroke="#6c8ebf" pointer-events="all"/><rect x="40" y="204.61" width="20" height="20" fill="none" stroke="#6c8ebf" pointer-events="all"/><rect x="60" y="204.61" width="20" height="20" fill="none" stroke="#6c8ebf" pointer-events="all"/><rect x="40" y="224.61" width="20" height="20" fill="none" stroke="#6c8ebf" pointer-events="all"/><rect x="60" y="224.61" width="20" height="20" fill="none" stroke="#6c8ebf" pointer-events="all"/><rect x="80" y="204.61" width="20" height="20" fill="none" stroke="#6c8ebf" pointer-events="all"/><rect x="100" y="204.61" width="20" height="20" fill="#dae8fc" stroke="#6c8ebf" pointer-events="all"/><rect x="80" y="224.61" width="20" height="20" fill="none" stroke="#6c8ebf" pointer-events="all"/><rect x="100" y="224.61" width="20" height="20" fill="none" stroke="#6c8ebf" pointer-events="all"/><rect x="120" y="204.61" width="20" height="20" fill="#dae8fc" stroke="#6c8ebf" pointer-events="all"/><rect x="140" y="204.61" width="20" height="20" fill="#dae8fc" stroke="#6c8ebf" pointer-events="all"/><rect x="120" y="224.61" width="20" height="20" fill="#dae8fc" stroke="#6c8ebf" pointer-events="all"/><rect x="140" y="224.61" width="20" height="20" fill="#dae8fc" stroke="#6c8ebf" pointer-events="all"/><rect x="160" y="44.61" width="20" height="20" fill="none" stroke="#6c8ebf" pointer-events="all"/><rect x="180" y="44.61" width="20" height="20" fill="none" stroke="#6c8ebf" pointer-events="all"/><rect x="160" y="64.61" width="20" height="20" fill="none" stroke="#6c8ebf" pointer-events="all"/><rect x="180" y="64.61" width="20" height="20" fill="none" stroke="#6c8ebf" pointer-events="all"/><rect x="160" y="84.61" width="20" height="20" fill="none" stroke="#6c8ebf" pointer-events="all"/><rect x="180" y="84.61" width="20" height="20" fill="none" stroke="#6c8ebf" pointer-events="all"/><rect x="160" y="104.61" width="20" height="20" fill="none" stroke="#6c8ebf" pointer-events="all"/><rect x="180" y="104.61" width="20" height="20" fill="none" stroke="#6c8ebf" pointer-events="all"/><rect x="160" y="124.61" width="20" height="20" fill="none" stroke="#6c8ebf" pointer-events="all"/><rect x="180" y="124.61" width="20" height="20" fill="none" stroke="#6c8ebf" pointer-events="all"/><rect x="160" y="144.61" width="20" height="20" fill="none" stroke="#6c8ebf" pointer-events="all"/><rect x="180" y="144.61" width="20" height="20" fill="none" stroke="#6c8ebf" pointer-events="all"/><rect x="160" y="164.61" width="20" height="20" fill="none" stroke="#6c8ebf" pointer-events="all"/><rect x="180" y="164.61" width="20" height="20" fill="none" stroke="#6c8ebf" pointer-events="all"/><rect x="160" y="184.61" width="20" height="20" fill="none" stroke="#6c8ebf" pointer-events="all"/><rect x="180" y="184.61" width="20" height="20" fill="none" stroke="#6c8ebf" pointer-events="all"/><rect x="160" y="204.61" width="20" height="20" fill="#dae8fc" stroke="#6c8ebf" pointer-events="all"/><rect x="180" y="204.61" width="20" height="20" fill="none" stroke="#6c8ebf" pointer-events="all"/><rect x="160" y="224.61" width="20" height="20" fill="#dae8fc" stroke="#6c8ebf" pointer-events="all"/><rect x="180" y="224.61" width="20" height="20" fill="#dae8fc" stroke="#6c8ebf" pointer-events="all"/><rect x="200" y="44.61" width="20" height="20" fill="none" stroke="#6c8ebf" pointer-events="all"/><rect x="220" y="44.61" width="20" height="20" fill="none" stroke="#6c8ebf" pointer-events="all"/><rect x="200" y="64.61" width="20" height="20" fill="none" stroke="#6c8ebf" pointer-events="all"/><rect x="220" y="64.61" width="20" height="20" fill="none" stroke="#6c8ebf" pointer-events="all"/><rect x="200" y="84.61" width="20" height="20" fill="none" stroke="#6c8ebf" pointer-events="all"/><rect x="220" y="84.61" width="20" height="20" fill="none" stroke="#6c8ebf" pointer-events="all"/><rect x="200" y="104.61" width="20" height="20" fill="none" stroke="#6c8ebf" pointer-events="all"/><rect x="220" y="104.61" width="20" height="20" fill="none" stroke="#6c8ebf" pointer-events="all"/><rect x="200" y="124.61" width="20" height="20" fill="none" stroke="#6c8ebf" pointer-events="all"/><rect x="220" y="124.61" width="20" height="20" fill="none" stroke="#6c8ebf" pointer-events="all"/><rect x="200" y="144.61" width="20" height="20" fill="none" stroke="#6c8ebf" pointer-events="all"/><rect x="220" y="144.61" width="20" height="20" fill="none" stroke="#6c8ebf" pointer-events="all"/><rect x="200" y="164.61" width="20" height="20" fill="none" stroke="#6c8ebf" pointer-events="all"/><rect x="220" y="164.61" width="20" height="20" fill="none" stroke="#6c8ebf" pointer-events="all"/><rect x="200" y="184.61" width="20" height="20" fill="none" stroke="#6c8ebf" pointer-events="all"/><rect x="220" y="184.61" width="20" height="20" fill="none" stroke="#6c8ebf" pointer-events="all"/><rect x="200" y="204.61" width="20" height="20" fill="none" stroke="#6c8ebf" pointer-events="all"/><rect x="220" y="204.61" width="20" height="20" fill="none" stroke="#6c8ebf" pointer-events="all"/><rect x="200" y="224.61" width="20" height="20" fill="none" stroke="#6c8ebf" pointer-events="all"/><rect x="220" y="224.61" width="20" height="20" fill="none" stroke="#6c8ebf" pointer-events="all"/><rect x="0" y="244.61" width="20" height="20" fill="none" stroke="#6c8ebf" pointer-events="all"/><rect x="20" y="244.61" width="20" height="20" fill="none" stroke="#6c8ebf" pointer-events="all"/><rect x="40" y="244.61" width="20" height="20" fill="none" stroke="#6c8ebf" pointer-events="all"/><rect x="60" y="244.61" width="20" height="20" fill="none" stroke="#6c8ebf" pointer-events="all"/><rect x="80" y="244.61" width="20" height="20" fill="none" stroke="#6c8ebf" pointer-events="all"/><rect x="100" y="244.61" width="20" height="20" fill="none" stroke="#6c8ebf" pointer-events="all"/><rect x="120" y="244.61" width="20" height="20" fill="none" stroke="#6c8ebf" pointer-events="all"/><rect x="140" y="244.61" width="20" height="20" fill="#dae8fc" stroke="#6c8ebf" pointer-events="all"/><rect x="160" y="244.61" width="20" height="20" fill="#dae8fc" stroke="#6c8ebf" pointer-events="all"/><rect x="180" y="244.61" width="20" height="20" fill="#dae8fc" stroke="#6c8ebf" pointer-events="all"/><rect x="200" y="244.61" width="20" height="20" fill="#dae8fc" stroke="#6c8ebf" pointer-events="all"/><rect x="220" y="244.61" width="20" height="20" fill="none" stroke="#6c8ebf" pointer-events="all"/><rect x="0" y="264.61" width="20" height="20" fill="none" stroke="#6c8ebf" pointer-events="all"/><rect x="20" y="264.61" width="20" height="20" fill="none" stroke="#6c8ebf" pointer-events="all"/><rect x="40" y="264.61" width="20" height="20" fill="none" stroke="#6c8ebf" pointer-events="all"/><rect x="60" y="264.61" width="20" height="20" fill="none" stroke="#6c8ebf" pointer-events="all"/><rect x="80" y="264.61" width="20" height="20" fill="none" stroke="#6c8ebf" pointer-events="all"/><rect x="100" y="264.61" width="20" height="20" fill="none" stroke="#6c8ebf" pointer-events="all"/><rect x="120" y="264.61" width="20" height="20" fill="none" stroke="#6c8ebf" pointer-events="all"/><rect x="140" y="264.61" width="20" height="20" fill="none" stroke="#6c8ebf" pointer-events="all"/><rect x="160" y="264.61" width="20" height="20" fill="#dae8fc" stroke="#6c8ebf" pointer-events="all"/><rect x="180" y="264.61" width="20" height="20" fill="#dae8fc" stroke="#6c8ebf" pointer-events="all"/><rect x="200" y="264.61" width="20" height="20" fill="#dae8fc" stroke="#6c8ebf" pointer-events="all"/><rect x="220" y="264.61" width="20" height="20" fill="#dae8fc" stroke="#6c8ebf" pointer-events="all"/><path d="M 90.02 110.59 L 85.02 110.59 Q 80.02 110.59 80.02 120.59 L 80.02 140.61 Q 80.02 150.61 75.02 150.61 L 72.52 150.61 Q 70.02 150.61 75.02 150.61 L 77.52 150.61 Q 80.02 150.61 80.02 160.61 L 80.02 180.63 Q 80.02 190.63 85.02 190.63 L 90.02 190.63" fill="none" stroke="#000000" stroke-miterlimit="10" transform="rotate(90,80.02,150.61)" pointer-events="all"/><rect x="50" y="121.6" width="60" height="20" fill="none" stroke="none" pointer-events="all"/><g transform="translate(-0.5 -0.5)"><switch><foreignObject style="overflow: visible; text-align: left;" pointer-events="none" width="100%" height="100%" requiredFeatures="http://www.w3.org/TR/SVG11/feature#Extensibility"><div xmlns="http://www.w3.org/1999/xhtml" style="display: flex; align-items: unsafe center; justify-content: unsafe center; width: 1px; height: 1px; padding-top: 132px; margin-left: 80px;"><div style="box-sizing: border-box; font-size: 0; text-align: center; "><div style="display: inline-block; font-size: 14px; font-family: Helvetica; color: #000000; line-height: 1.2; pointer-events: all; white-space: nowrap; "><font style="font-size: 12px">训练长度</font></div></div></div></foreignObject><text x="80" y="136" fill="#000000" font-family="Helvetica" font-size="14px" text-anchor="middle">训练长度</text></switch></g><path d="M 129.94 -90 L 124.94 -90 Q 119.94 -90 119.94 -80 L 119.94 19.92 Q 119.94 29.92 114.94 29.92 L 112.44 29.92 Q 109.94 29.92 114.94 29.92 L 117.44 29.92 Q 119.94 29.92 119.94 39.93 L 119.94 139.85 Q 119.94 149.85 124.94 149.85 L 129.94 149.85" fill="none" stroke="#000000" stroke-miterlimit="10" transform="rotate(90,119.94,29.92)" pointer-events="all"/><rect x="89.7" y="0.23" width="60" height="20" fill="none" stroke="none" pointer-events="all"/><g transform="translate(-0.5 -0.5)"><switch><foreignObject style="overflow: visible; text-align: left;" pointer-events="none" width="100%" height="100%" requiredFeatures="http://www.w3.org/TR/SVG11/feature#Extensibility"><div xmlns="http://www.w3.org/1999/xhtml" style="display: flex; align-items: unsafe center; justify-content: unsafe center; width: 1px; height: 1px; padding-top: 10px; margin-left: 120px;"><div style="box-sizing: border-box; font-size: 0; text-align: center; "><div style="display: inline-block; font-size: 14px; font-family: Helvetica; color: #000000; line-height: 1.2; pointer-events: all; white-space: nowrap; "><font style="font-size: 12px">预测长度</font></div></div></div></foreignObject><text x="120" y="14" fill="#000000" font-family="Helvetica" font-size="14px" text-anchor="middle">预测长度</text></switch></g></g><switch><g requiredFeatures="http://www.w3.org/TR/SVG11/feature#Extensibility"/><a transform="translate(0,-5)" xlink:href="https://desk.draw.io/support/solutions/articles/16000042487" target="_blank"><text text-anchor="middle" font-size="10px" x="50%" y="100%">Viewer does not support full SVG 1.1</text></a></switch></svg>